<?xml version="1.0" standalone="no"?>
<!DOCTYPE svg PUBLIC "-//W3C//DTD SVG 20010904//EN"
 "http://www.w3.org/TR/2001/REC-SVG-20010904/DTD/svg10.dtd">
<svg version="1.0" xmlns="http://www.w3.org/2000/svg"
 width="533.000000pt" height="533.000000pt" viewBox="0 0 533.000000 533.000000"
 preserveAspectRatio="xMidYMid meet">
<metadata>
Created by potrace 1.14, written by Peter Selinger 2001-2017
</metadata>
<g transform="translate(0.000000,533.000000) scale(0.100000,-0.100000)"
fill="#000000" stroke="none">
<path d="M2420 4200 c-285 -17 -403 -62 -587 -224 -64 -57 -132 -86 -200 -86
-43 0 -137 32 -227 77 -77 39 -169 53 -217 35 -37 -15 -62 -74 -62 -144 1 -84
45 -172 132 -262 67 -69 70 -74 81 -140 15 -95 30 -121 86 -142 39 -15 50 -25
67 -63 17 -39 19 -59 14 -146 -4 -55 -18 -145 -32 -200 -39 -157 -32 -275 26
-427 17 -42 52 -111 80 -153 27 -42 49 -77 49 -78 0 -1 -154 -2 -343 -3 -280
0 -356 -3 -422 -17 -92 -19 -119 -38 -93 -63 14 -14 23 -15 60 -6 99 25 286
35 571 29 188 -3 293 -9 300 -16 6 -6 9 -13 6 -15 -2 -3 -92 -9 -200 -16 -192
-10 -321 -26 -406 -49 -35 -10 -43 -16 -43 -36 0 -31 15 -35 75 -18 77 20 271
41 467 49 171 6 177 6 204 -15 23 -18 24 -21 8 -21 -50 0 -388 -31 -496 -45
-214 -28 -366 -68 -375 -100 -1 -5 1 -16 6 -24 8 -12 20 -11 83 7 146 43 367
73 689 94 172 11 191 11 206 -4 20 -21 22 -20 -164 -43 -194 -24 -363 -68
-363 -94 0 -5 7 -16 15 -25 14 -13 20 -13 58 0 64 23 207 50 356 69 153 18
150 19 151 -60 2 -193 107 -352 250 -379 23 -4 46 -19 66 -43 l31 -37 -51 -62
c-87 -106 -107 -164 -57 -164 14 0 27 13 40 37 10 21 43 64 73 96 l53 58 42
-17 41 -16 -14 -40 c-8 -22 -15 -59 -16 -82 -3 -37 -1 -41 21 -41 22 0 26 8
44 72 l19 72 139 0 c95 0 141 -4 146 -12 4 -7 15 -39 24 -72 14 -52 19 -60 40
-60 22 0 24 3 21 43 -2 24 -10 61 -17 82 l-13 38 41 16 42 17 53 -58 c30 -32
63 -75 73 -96 15 -29 25 -38 42 -35 12 2 23 11 25 22 4 20 -71 136 -112 175
l-25 23 31 39 c22 27 42 41 67 45 146 27 249 185 251 386 0 31 4 59 9 62 10 7
292 -28 368 -44 27 -6 79 -20 116 -32 58 -18 70 -19 78 -7 16 26 9 40 -28 56
-51 21 -234 58 -363 72 -147 17 -154 19 -140 36 16 19 59 19 297 0 236 -19
458 -49 560 -76 119 -32 129 -33 137 -13 11 28 -13 42 -114 68 -144 36 -535
86 -679 86 -25 0 -56 3 -68 6 l-23 6 24 19 c22 17 36 18 237 9 232 -10 342
-22 432 -47 50 -14 60 -14 68 -2 5 8 8 20 6 28 -6 36 -204 69 -470 78 -187 6
-188 6 -169 26 19 19 36 20 364 21 295 1 358 -2 452 -18 91 -16 109 -17 117
-5 21 33 2 47 -87 66 -64 14 -143 17 -426 17 -192 1 -348 4 -348 7 0 4 8 17
19 30 63 81 123 214 146 325 21 104 19 184 -11 299 -31 123 -42 282 -22 340
11 34 21 44 65 64 60 28 78 57 95 152 10 56 15 66 79 129 122 122 169 263 120
363 -24 49 -39 57 -115 57 -38 0 -74 -11 -158 -50 -131 -60 -184 -74 -248 -67
-65 8 -116 36 -192 103 -163 147 -275 186 -586 204 -184 11 -284 11 -472 0z
m517 -60 c247 -19 350 -58 493 -184 103 -91 162 -118 265 -118 39 0 82 5 98
11 45 18 31 4 -35 -33 -102 -56 -160 -69 -262 -56 -48 6 -117 22 -155 35 -38
14 -75 25 -84 25 -21 0 -30 -31 -14 -47 15 -15 142 -62 169 -63 29 0 136 -69
192 -123 61 -61 95 -121 105 -186 5 -41 9 -46 31 -46 21 0 25 5 28 36 6 75
-60 192 -149 264 -38 32 -35 45 12 45 37 0 205 86 333 169 60 39 115 71 122
71 7 0 19 2 27 6 22 8 41 -48 34 -106 -8 -70 -39 -123 -122 -210 -70 -73 -95
-119 -95 -173 0 -41 -28 -85 -58 -92 -110 -24 -141 -205 -77 -463 30 -125 32
-212 5 -316 -24 -93 -97 -237 -155 -302 l-41 -47 -87 -5 c-69 -4 -90 -8 -97
-21 -15 -28 3 -40 64 -43 l58 -3 -70 -52 c-79 -61 -116 -69 -107 -25 16 74 29
113 41 123 27 23 4 66 -29 53 -20 -7 -54 -77 -62 -129 -11 -65 -15 -74 -38
-77 -32 -4 -31 -52 1 -56 27 -4 29 -28 2 -35 -25 -6 -26 -43 -2 -56 16 -9 17
-19 10 -103 -7 -79 -13 -104 -45 -168 -31 -61 -47 -80 -86 -104 -45 -27 -58
-30 -160 -34 -67 -3 -129 0 -155 7 -74 20 -142 96 -142 158 0 22 9 34 43 55
63 40 82 65 82 106 0 31 6 40 45 69 86 64 100 79 100 112 0 21 -9 41 -26 58
-24 24 -27 24 -42 9 -14 -13 -14 -20 -4 -36 19 -31 16 -36 -48 -81 -72 -50
-94 -81 -86 -119 5 -25 0 -32 -45 -61 l-51 -32 -31 18 c-53 30 -67 47 -67 79
0 42 -19 67 -90 117 -58 40 -71 61 -50 74 16 10 12 42 -7 49 -22 9 -63 -31
-63 -60 0 -36 19 -69 52 -88 16 -10 45 -32 65 -49 27 -24 33 -35 28 -55 -8
-33 13 -62 74 -101 56 -36 62 -55 37 -114 -21 -52 -77 -94 -143 -107 -71 -15
-226 -8 -274 13 -86 37 -144 143 -157 286 -7 84 -6 93 10 102 24 13 23 50 -2
56 -26 7 -26 33 0 33 21 0 40 27 33 48 -3 6 -15 12 -27 12 -20 0 -24 8 -35 70
-15 84 -46 135 -81 135 -17 0 -26 -6 -28 -20 -3 -20 -6 -20 -96 -10 -53 6
-101 16 -111 25 -25 21 -87 115 -123 187 -77 151 -90 289 -45 470 36 148 39
306 6 373 -22 44 -65 80 -97 80 -21 0 -35 28 -47 97 -15 78 -26 97 -107 178
-96 98 -134 205 -100 280 10 22 16 25 42 19 17 -3 86 -41 152 -85 144 -94 258
-150 319 -156 l44 -5 -67 -67 c-77 -76 -114 -143 -120 -218 -4 -44 -1 -54 13
-59 22 -9 45 20 45 56 0 44 48 125 108 182 70 67 135 105 209 125 101 26 153
53 153 78 0 32 -20 36 -71 13 -66 -29 -163 -49 -249 -50 -71 -1 -84 2 -165 41
-48 23 -85 44 -83 46 1 1 31 -1 65 -7 49 -7 76 -6 125 7 73 18 110 41 204 125
121 108 242 152 459 169 145 12 421 12 562 1z m-998 -1957 c7 -15 15 -49 18
-75 5 -45 4 -48 -17 -48 -19 0 -148 95 -149 110 -1 3 24 3 55 2 49 -4 56 -2
61 17 7 28 17 26 32 -6z m872 -727 c29 -9 80 -16 113 -16 l61 -1 -30 -24 c-36
-30 -117 -63 -122 -50 -9 29 -45 75 -57 75 -27 0 -36 -24 -21 -54 8 -16 15
-32 15 -37 0 -5 -47 -9 -105 -9 -58 0 -105 2 -105 5 0 4 7 20 16 36 34 67 -21
84 -58 19 -26 -46 -42 -47 -115 -4 -63 36 -62 44 5 44 92 0 157 24 211 78 l46
47 46 -47 c33 -33 62 -51 100 -62z"/>
<path d="M2113 3464 c-6 -16 15 -86 46 -154 17 -36 48 -51 61 -29 8 12 -41
162 -62 186 -15 18 -37 16 -45 -3z"/>
<path d="M3172 3468 c-6 -8 -25 -49 -41 -93 -28 -71 -29 -81 -16 -95 11 -11
20 -12 32 -4 19 12 75 151 71 179 -4 24 -30 31 -46 13z"/>
<path d="M2316 3458 c-2 -7 -7 -45 -10 -84 -4 -54 -3 -74 8 -83 36 -30 61 29
54 129 -2 38 -7 46 -26 48 -12 2 -24 -3 -26 -10z"/>
<path d="M2956 3462 c-8 -13 9 -161 20 -172 6 -6 18 -8 27 -4 13 5 17 19 17
64 0 91 -9 120 -36 120 -12 0 -25 -4 -28 -8z"/>
<path d="M1903 3403 c-25 -9 -12 -37 59 -125 54 -66 77 -88 92 -86 40 6 27 41
-47 127 -73 86 -82 93 -104 84z"/>
<path d="M3394 3402 c-5 -4 -41 -44 -78 -89 -68 -84 -79 -115 -41 -121 15 -2
39 21 93 87 74 91 84 114 56 125 -19 7 -17 7 -30 -2z"/>
<path d="M2072 3111 c-50 -31 66 -100 222 -131 108 -21 141 -41 154 -94 6 -24
14 -31 33 -31 19 0 25 6 27 30 6 74 -73 135 -208 158 -67 12 -155 42 -210 74
-3 1 -11 -1 -18 -6z"/>
<path d="M3198 3089 c-32 -17 -83 -35 -115 -41 -159 -30 -223 -65 -242 -135
-12 -44 -5 -63 23 -63 18 0 25 9 35 40 16 53 50 74 154 93 93 17 180 48 217
77 20 15 23 23 14 36 -16 26 -24 25 -86 -7z"/>
<path d="M1863 3063 c-27 -10 -12 -43 31 -68 l44 -26 -5 -58 c-8 -85 16 -148
76 -205 94 -87 212 -94 322 -20 l51 34 -7 -75 c-6 -65 -4 -76 10 -81 26 -10
44 16 51 78 9 78 -3 161 -29 200 -36 53 -100 95 -164 108 -150 29 -227 51
-290 82 -82 40 -75 37 -90 31z m171 -133 c20 -7 26 -16 26 -40 0 -74 56 -125
127 -117 49 5 80 28 98 70 l12 29 29 -26 29 -25 -20 -38 c-68 -128 -259 -114
-329 24 -17 34 -22 133 -7 133 5 0 21 -4 35 -10z m171 -35 c30 -6 32 -25 5
-50 -24 -22 -65 -14 -80 16 -17 30 -5 51 25 44 14 -3 36 -7 50 -10z"/>
<path d="M3371 3030 c-67 -34 -110 -47 -283 -80 -72 -14 -137 -57 -168 -112
-22 -38 -25 -55 -25 -145 0 -82 3 -106 17 -119 9 -9 24 -14 33 -11 14 6 15 18
9 83 l-7 76 49 -35 c90 -64 177 -71 274 -22 90 45 136 133 127 241 l-5 63 45
27 c34 19 43 31 41 47 -4 32 -25 30 -107 -13z m-36 -153 c0 -46 -6 -64 -30
-98 -56 -78 -156 -105 -240 -63 -36 17 -85 73 -85 96 0 5 12 20 27 34 l28 26
12 -31 c45 -110 215 -76 215 43 0 29 5 37 27 45 40 15 46 8 46 -52z m-135 10
c0 -54 -80 -76 -95 -26 -10 32 0 38 83 48 6 0 12 -10 12 -22z"/>
<path d="M1817 2643 c-18 -17 -3 -42 42 -72 55 -35 109 -101 118 -143 7 -34
27 -52 49 -44 13 5 15 15 11 48 -7 54 -48 111 -122 170 -56 45 -83 57 -98 41z"/>
<path d="M3434 2616 c-80 -54 -144 -143 -144 -201 0 -53 53 -40 65 15 8 35 82
120 130 150 37 23 46 54 19 64 -9 3 -16 6 -17 6 -1 0 -25 -15 -53 -34z"/>
<path d="M2495 2550 c-10 -16 14 -107 42 -164 27 -53 108 -146 128 -146 20 0
100 94 125 145 28 57 50 142 43 161 -11 28 -47 11 -56 -26 -17 -68 -39 -115
-75 -164 l-36 -49 -28 34 c-36 42 -67 106 -82 167 -9 35 -17 48 -33 50 -12 2
-24 -2 -28 -8z"/>
<path d="M2183 2378 c-77 -119 -86 -189 -36 -276 19 -33 30 -42 46 -40 27 4
34 33 14 56 -48 56 -38 124 32 232 45 69 48 93 14 98 -18 3 -32 -11 -70 -70z"/>
<path d="M3054 2435 c-4 -9 11 -42 34 -78 79 -120 86 -170 36 -238 -18 -24
-21 -36 -13 -50 14 -26 26 -24 59 12 72 80 59 192 -39 327 -32 43 -66 55 -77
27z"/>
<path d="M3011 2076 c-7 -8 -12 -25 -11 -38 5 -51 -1 -71 -30 -100 -49 -49
-35 -90 22 -62 54 28 93 133 66 183 -16 31 -31 36 -47 17z"/>
<path d="M2271 2061 c-26 -48 4 -142 58 -180 60 -43 82 -3 31 56 -16 18 -31
41 -31 51 -1 9 -2 33 -3 52 -1 28 -5 36 -23 38 -14 2 -26 -4 -32 -17z"/>
<path d="M2503 2043 c-41 -16 24 -87 104 -114 64 -21 170 8 217 60 40 44 -8
77 -54 37 -62 -51 -136 -52 -209 -2 -20 14 -39 26 -42 25 -2 0 -10 -3 -16 -6z"/>
<path d="M2146 1874 c-24 -23 -20 -53 9 -66 19 -8 28 -8 40 2 21 18 19 57 -4
70 -25 13 -27 13 -45 -6z"/>
<path d="M3126 1868 c-13 -19 -14 -25 -2 -43 18 -26 40 -30 60 -10 20 21 20
39 0 59 -21 22 -40 20 -58 -6z"/>
<path d="M2307 1783 c-4 -3 -7 -19 -7 -34 0 -22 6 -30 25 -35 43 -11 73 34 43
64 -13 13 -50 16 -61 5z"/>
<path d="M2961 1776 c-16 -19 -11 -46 12 -60 25 -16 52 4 52 40 0 24 -5 30
-26 32 -14 2 -31 -4 -38 -12z"/>
<path d="M2156 1719 c-27 -40 13 -81 52 -53 26 18 28 37 6 58 -21 22 -40 20
-58 -5z"/>
<path d="M3110 1725 c-7 -8 -10 -25 -6 -39 11 -44 76 -38 76 7 0 43 -44 63
-70 32z"/>
<path d="M2436 1707 c-38 -27 2 -95 42 -71 24 16 28 55 6 71 -10 7 -21 13 -24
13 -3 0 -14 -6 -24 -13z"/>
<path d="M2848 1709 c-22 -12 -23 -52 -3 -69 12 -10 21 -10 40 -2 31 14 34 56
6 72 -23 12 -22 12 -43 -1z"/>
<path d="M2272 1628 c-7 -7 -12 -20 -12 -29 0 -43 72 -53 78 -11 6 42 -37 69
-66 40z"/>
<path d="M3001 1626 c-7 -8 -11 -25 -9 -38 2 -18 9 -23 32 -23 36 0 56 27 40
53 -14 22 -48 27 -63 8z"/>
</g>
</svg>
